<svg width="25" height="24" viewBox="0 0 25 24" fill="none" xmlns="http://www.w3.org/2000/svg">
<g clip-path="url(#clip0_1_2)">
<path d="M17 12C17 13.0406 16.9438 14.0438 16.8453 15H8.15469C8.05625 14.0438 7.95781 13.0406 7.95781 12C7.95781 10.9594 8.05625 9.95625 8.15469 9H16.8453C16.9438 9.95625 17 10.9594 17 12ZM24.1203 9C24.3687 9.96094 24.5 10.9641 24.5 12C24.5 13.0359 24.3687 14.0391 24.1203 15H18.35C18.4484 14.0344 18.5 12.9891 18.5 12C18.5 10.9688 18.4484 9.96563 18.35 9H24.1203ZM23.6281 7.5H18.1578C17.6891 4.50656 16.7609 1.99781 15.5656 0.395719C19.2406 1.36359 22.2219 4.02844 23.6281 7.5ZM16.6391 7.5H8.36094C8.64687 5.79375 9.0875 4.28344 9.62656 3.06328C10.1187 1.95656 10.6672 1.15359 11.1969 0.647344C11.7219 0.148969 12.1578 0 12.5 0C12.8422 0 13.2781 0.148969 13.8031 0.647344C14.3328 1.15359 14.8812 1.95656 15.3734 3.06328C15.9125 4.28344 16.3531 5.79375 16.6391 7.5ZM1.37234 7.5C2.77766 4.02844 5.75938 1.36359 9.43438 0.395719C8.23906 1.99781 7.31094 4.50656 6.84219 7.5H1.37234ZM6.65 9C6.55156 9.96563 6.45781 10.9688 6.45781 12C6.45781 12.9891 6.55156 14.0344 6.65 15H0.878047C0.63125 14.0391 0.5 13.0359 0.5 12C0.5 10.9641 0.63125 9.96094 0.878047 9H6.65ZM9.62656 20.9344C9.0875 19.7156 8.64687 18.2063 8.36094 16.5H16.6391C16.3531 18.2063 15.9125 19.7156 15.3734 20.9344C14.8812 22.0453 14.3328 22.8469 13.8031 23.3531C13.2781 23.85 12.8422 24 12.4578 24C12.1578 24 11.7219 23.85 11.1969 23.3531C10.6672 22.8469 10.1187 22.0453 9.62656 20.9344ZM9.43438 23.6063C5.75938 22.6359 2.77766 19.9734 1.37234 16.5H6.84219C7.31094 19.4953 8.23906 22.0031 9.43438 23.6063ZM15.5656 23.6063C16.7609 22.0031 17.6891 19.4953 18.1578 16.5H23.6281C22.2219 19.9734 19.2406 22.6359 15.5656 23.6063Z" fill="black"/>
<path d="M17 12C17 13.0406 16.9438 14.0438 16.8453 15H8.15469C8.05625 14.0438 7.95781 13.0406 7.95781 12C7.95781 10.9594 8.05625 9.95625 8.15469 9H16.8453C16.9438 9.95625 17 10.9594 17 12ZM24.1203 9C24.3687 9.96094 24.5 10.9641 24.5 12C24.5 13.0359 24.3687 14.0391 24.1203 15H18.35C18.4484 14.0344 18.5 12.9891 18.5 12C18.5 10.9688 18.4484 9.96563 18.35 9H24.1203ZM23.6281 7.5H18.1578C17.6891 4.50656 16.7609 1.99781 15.5656 0.395719C19.2406 1.36359 22.2219 4.02844 23.6281 7.5ZM16.6391 7.5H8.36094C8.64687 5.79375 9.0875 4.28344 9.62656 3.06328C10.1187 1.95656 10.6672 1.15359 11.1969 0.647344C11.7219 0.148969 12.1578 0 12.5 0C12.8422 0 13.2781 0.148969 13.8031 0.647344C14.3328 1.15359 14.8812 1.95656 15.3734 3.06328C15.9125 4.28344 16.3531 5.79375 16.6391 7.5ZM1.37234 7.5C2.77766 4.02844 5.75938 1.36359 9.43438 0.395719C8.23906 1.99781 7.31094 4.50656 6.84219 7.5H1.37234ZM6.65 9C6.55156 9.96563 6.45781 10.9688 6.45781 12C6.45781 12.9891 6.55156 14.0344 6.65 15H0.878047C0.63125 14.0391 0.5 13.0359 0.5 12C0.5 10.9641 0.63125 9.96094 0.878047 9H6.65ZM9.62656 20.9344C9.0875 19.7156 8.64687 18.2063 8.36094 16.5H16.6391C16.3531 18.2063 15.9125 19.7156 15.3734 20.9344C14.8812 22.0453 14.3328 22.8469 13.8031 23.3531C13.2781 23.85 12.8422 24 12.4578 24C12.1578 24 11.7219 23.85 11.1969 23.3531C10.6672 22.8469 10.1187 22.0453 9.62656 20.9344ZM9.43438 23.6063C5.75938 22.6359 2.77766 19.9734 1.37234 16.5H6.84219C7.31094 19.4953 8.23906 22.0031 9.43438 23.6063ZM15.5656 23.6063C16.7609 22.0031 17.6891 19.4953 18.1578 16.5H23.6281C22.2219 19.9734 19.2406 22.6359 15.5656 23.6063Z" fill="black"/>
</g>
<defs>
<clipPath id="clip0_1_2">
<rect width="24" height="24" fill="white" transform="translate(0.5)"/>
</clipPath>
</defs>
</svg>
