<svg width="41" height="41" viewBox="0 0 41 41" fill="none" xmlns="http://www.w3.org/2000/svg">
<path d="M10.66 27.12C10.1933 27.12 9.88667 26.8933 9.74 26.44L6.26 15.02C6.19333 14.78 6.16 14.5667 6.16 14.38C6.16 14.1267 6.25333 13.92 6.44 13.76C6.62667 13.5867 6.85333 13.5 7.12 13.5C7.61333 13.5 7.93333 13.7333 8.08 14.2L10.7 22.82L13.5 14.18C13.6467 13.7267 13.9667 13.5 14.46 13.5C14.94 13.5 15.2467 13.7333 15.38 14.2L17.76 22.84L20.96 13.98C21.1333 13.5133 21.4533 13.28 21.92 13.28C22.1867 13.28 22.4133 13.3667 22.6 13.54C22.7867 13.7 22.88 13.9067 22.88 14.16C22.88 14.3867 22.8467 14.6 22.78 14.8L18.56 26.48C18.4933 26.68 18.38 26.84 18.22 26.96C18.06 27.0667 17.8733 27.12 17.66 27.12C17.14 27.12 16.82 26.88 16.7 26.4L14.36 17.96L11.62 26.44C11.54 26.6933 11.42 26.8733 11.26 26.98C11.1133 27.0733 10.9133 27.12 10.66 27.12ZM25.5936 27.16C25.1669 27.16 24.8669 27.0733 24.6936 26.9C24.5203 26.7267 24.4336 26.4467 24.4336 26.06V14.58C24.4336 14.3133 24.5336 14.0867 24.7336 13.9C24.9336 13.7 25.1603 13.6 25.4136 13.6H28.8136C29.7736 13.6 30.5936 13.7667 31.2736 14.1C31.9669 14.42 32.4869 14.8533 32.8336 15.4C33.1803 15.9333 33.3536 16.5133 33.3536 17.14C33.3536 18.14 33.0469 18.9733 32.4336 19.64C33.1136 19.96 33.6203 20.3867 33.9536 20.92C34.2869 21.44 34.4536 22.0867 34.4536 22.86C34.4536 24.2467 33.7136 25.3133 32.2336 26.06C30.7536 26.7933 28.5403 27.16 25.5936 27.16ZM29.4936 19.02C30.0403 19.02 30.4869 18.8333 30.8336 18.46C31.1936 18.0733 31.3736 17.64 31.3736 17.16C31.3736 16.6933 31.1469 16.3067 30.6936 16C30.2536 15.68 29.6269 15.52 28.8136 15.52H26.4336V19.02H29.4936ZM26.4336 25.26C28.2069 25.2333 29.6536 25.02 30.7736 24.62C31.9069 24.22 32.4736 23.6333 32.4736 22.86C32.4736 22.2867 32.2136 21.8267 31.6936 21.48C31.1736 21.12 30.4403 20.94 29.4936 20.94H26.4336V25.26Z" fill="black"/>
<circle cx="20.5" cy="20.5" r="20" stroke="black"/>
</svg>
